<svg width="50" height="50" viewBox="0 0 50 50" fill="none" xmlns="http://www.w3.org/2000/svg">
<path d="M0 0H35C43.2843 0 50 6.71573 50 15V50H15C6.71573 50 0 43.2843 0 35V0Z" fill="url(#paint0_linear_5_20)"/>
<g clip-path="url(#clip0_5_20)">
<g filter="url(#filter0_d_5_20)">
<path d="M9 12.5C9 11.3065 9.47411 10.1619 10.318 9.31802C11.1619 8.47411 12.3065 8 13.5 8H18.5C19.6935 8 20.8381 8.47411 21.682 9.31802C22.5259 10.1619 23 11.3065 23 12.5V17.5C23 18.6935 22.5259 19.8381 21.682 20.682C20.8381 21.5259 19.6935 22 18.5 22H13.5C12.3065 22 11.1619 21.5259 10.318 20.682C9.47411 19.8381 9 18.6935 9 17.5V12.5ZM9 30.5C9 29.3065 9.47411 28.1619 10.318 27.318C11.1619 26.4741 12.3065 26 13.5 26H18.5C19.6935 26 20.8381 26.4741 21.682 27.318C22.5259 28.1619 23 29.3065 23 30.5V35.5C23 36.6935 22.5259 37.8381 21.682 38.682C20.8381 39.5259 19.6935 40 18.5 40H13.5C12.3065 40 11.1619 39.5259 10.318 38.682C9.47411 37.8381 9 36.6935 9 35.5V30.5ZM27 12.5C27 11.3065 27.4741 10.1619 28.318 9.31802C29.1619 8.47411 30.3065 8 31.5 8H36.5C37.6935 8 38.8381 8.47411 39.682 9.31802C40.5259 10.1619 41 11.3065 41 12.5V17.5C41 18.6935 40.5259 19.8381 39.682 20.682C38.8381 21.5259 37.6935 22 36.5 22H31.5C30.3065 22 29.1619 21.5259 28.318 20.682C27.4741 19.8381 27 18.6935 27 17.5V12.5ZM35.5 27.5C35.5 27.1022 35.342 26.7206 35.0607 26.4393C34.7794 26.158 34.3978 26 34 26C33.6022 26 33.2206 26.158 32.9393 26.4393C32.658 26.7206 32.5 27.1022 32.5 27.5V31.5H28.5C28.1022 31.5 27.7206 31.658 27.4393 31.9393C27.158 32.2206 27 32.6022 27 33C27 33.3978 27.158 33.7794 27.4393 34.0607C27.7206 34.342 28.1022 34.5 28.5 34.5H32.5V38.5C32.5 38.8978 32.658 39.2794 32.9393 39.5607C33.2206 39.842 33.6022 40 34 40C34.3978 40 34.7794 39.842 35.0607 39.5607C35.342 39.2794 35.5 38.8978 35.5 38.5V34.5H39.5C39.8978 34.5 40.2794 34.342 40.5607 34.0607C40.842 33.7794 41 33.3978 41 33C41 32.6022 40.842 32.2206 40.5607 31.9393C40.2794 31.658 39.8978 31.5 39.5 31.5H35.5V27.5Z" fill="url(#paint1_linear_5_20)"/>
</g>
</g>
<defs>
<filter id="filter0_d_5_20" x="5" y="4" width="40" height="40" filterUnits="userSpaceOnUse" color-interpolation-filters="sRGB">
<feFlood flood-opacity="0" result="BackgroundImageFix"/>
<feColorMatrix in="SourceAlpha" type="matrix" values="0 0 0 0 0 0 0 0 0 0 0 0 0 0 0 0 0 0 127 0" result="hardAlpha"/>
<feOffset/>
<feGaussianBlur stdDeviation="2"/>
<feComposite in2="hardAlpha" operator="out"/>
<feColorMatrix type="matrix" values="0 0 0 0 0 0 0 0 0 0 0 0 0 0 0 0 0 0 0.25 0"/>
<feBlend mode="normal" in2="BackgroundImageFix" result="effect1_dropShadow_5_20"/>
<feBlend mode="normal" in="SourceGraphic" in2="effect1_dropShadow_5_20" result="shape"/>
</filter>
<linearGradient id="paint0_linear_5_20" x1="0" y1="0" x2="50" y2="50" gradientUnits="userSpaceOnUse">
<stop stop-color="#0D9488"/>
<stop offset="1" stop-color="#5EEAD4"/>
</linearGradient>
<linearGradient id="paint1_linear_5_20" x1="9" y1="6.5" x2="41" y2="41.5" gradientUnits="userSpaceOnUse">
<stop stop-color="white"/>
<stop offset="1" stop-color="#A7F3D0"/>
</linearGradient>
<clipPath id="clip0_5_20">
<rect width="40" height="40" fill="white" transform="translate(5 4)"/>
</clipPath>
</defs>
</svg>
